<svg width="70" height="65" viewBox="0 0 70 65" fill="none" xmlns="http://www.w3.org/2000/svg">
<path d="M68.1143 16.5781C67.0264 14.8191 65.4968 13.6678 63.6904 13.2505L63.6662 13.2455C62.8453 13.0639 61.9976 13.0382 61.1672 13.1695L61.0758 13.1838C57.1955 13.8527 53.7434 17.7812 52.4873 22.9598C51.5645 26.7474 51.9945 30.5979 53.6383 33.2601C54.725 35.0207 56.2574 36.1716 58.071 36.5878L58.0907 36.592C58.9116 36.7733 59.7593 36.7991 60.5897 36.668C64.5163 36.0519 68.0099 32.1169 69.293 26.8682C70.1979 23.0878 69.7597 19.2415 68.1143 16.5781ZM55.864 39.9859C53.4094 38.99 51.089 38.0476 49.3446 35.9747C44.5289 30.2346 41.6211 26.77 35.5713 27.7193C29.5216 28.6686 27.8089 32.8582 24.9742 39.7987C23.9461 42.3095 22.0218 43.9194 19.9839 45.6261C17.6471 47.5816 15.2327 49.6019 14.5765 52.9352C14.3075 54.1419 14.2722 55.389 14.4727 56.6089C15.2781 61.742 19.9314 65.2912 24.8432 64.5204C27.3776 64.1228 29.937 62.8214 32.6454 61.444C35.2495 60.1196 37.9417 58.7506 40.3947 58.3657C42.8477 57.9808 45.8227 58.4606 48.6972 58.9253C51.6907 59.4022 54.5129 59.8591 57.0544 59.4603C61.9591 58.6907 65.2946 53.8881 64.4891 48.755C64.3014 47.5321 63.881 46.3565 63.2508 45.2918C61.6048 42.3168 58.686 41.1319 55.864 39.9859ZM19.6487 25.0753C21.6823 26.9405 24.0225 27.7758 26.2385 27.4281C26.5411 27.3807 26.8396 27.3108 27.1318 27.2192C31.6471 25.8143 33.6421 19.7225 31.6721 13.3398C30.8457 10.6561 29.3879 8.26467 27.5768 6.60598C25.5467 4.74466 23.2039 3.91115 20.9893 4.25864C20.6868 4.30612 20.3882 4.37596 20.096 4.46757C15.5807 5.87245 13.5857 11.9643 15.5558 18.347C16.38 21.0266 17.8374 23.4152 19.6487 25.0753ZM43.4535 24.6582C43.7597 24.6559 44.0653 24.6309 44.3678 24.5835C46.5853 24.2355 48.5557 22.7237 49.9204 20.3254C51.1347 18.1905 51.7848 15.4712 51.754 12.6642C51.6749 5.98774 47.9099 0.79966 43.1809 0.84238C42.8747 0.84466 42.5691 0.869632 42.2666 0.917091C40.0524 1.26744 38.0775 2.77845 36.715 5.1721C35.499 7.30576 34.8437 10.0288 34.8809 12.8392C34.96 19.5157 38.7249 24.7037 43.4535 24.6582ZM16.8517 43.0628L16.8706 43.0525C18.4667 42.1013 19.5718 40.5381 20.0659 38.5309C20.8143 35.4874 20.0465 31.6944 18.0108 28.371C15.1927 23.7717 10.663 21.0941 6.74069 21.7096C5.9099 21.8387 5.1108 22.1229 4.38505 22.5474L4.36618 22.5576C2.77347 23.5025 1.66931 25.0714 1.17522 27.0786C0.42678 30.1221 1.19458 33.9151 3.23027 37.2386C6.04842 41.8378 10.5781 44.5154 14.5004 43.8999C15.3297 43.7705 16.1273 43.4865 16.8517 43.0628Z" fill="#85686C"/>
</svg>
