<svg width="68" height="67" viewBox="0 0 68 67" fill="none" xmlns="http://www.w3.org/2000/svg">
<path d="M67.6024 32.7634C67.3853 30.7066 66.5066 29.0057 65.06 27.8461L65.0404 27.8311C64.3795 27.3114 63.6269 26.9204 62.8218 26.6785L62.7332 26.6517C58.9469 25.571 54.1323 27.613 50.754 31.734C48.2794 34.7464 46.9965 38.4022 47.3226 41.514C47.5379 43.5717 48.4194 45.2734 49.8729 46.4352L49.8888 46.4475C50.5498 46.9671 51.3023 47.358 52.1074 47.6002C55.9125 48.7485 60.7673 46.7186 64.2004 42.5462C66.6557 39.5325 67.9295 35.877 67.6024 32.7634ZM46.4102 48.5395C44.6306 46.5773 42.9487 44.7216 42.2763 42.0971C40.4275 34.8362 39.3106 30.4532 33.4479 28.684C27.5853 26.9148 24.2246 29.9466 18.6596 34.9703C16.6441 36.7866 14.2119 37.4023 11.6354 38.0559C8.68158 38.8041 5.62975 39.577 3.59253 42.2956C2.82662 43.2661 2.25385 44.3745 1.90523 45.5606C0.404106 50.535 3.05705 55.7514 7.81692 57.1878C10.273 57.929 13.1435 57.8668 16.1813 57.8007C19.1022 57.7371 22.1217 57.6715 24.4989 58.3889C26.876 59.1062 29.3483 60.8291 31.7367 62.4949C34.227 64.2232 36.5715 65.8591 39.0344 66.6024C43.7874 68.0367 48.8761 65.1565 50.3773 60.1822C50.7386 58.9989 50.8699 57.7573 50.7639 56.5246C50.5715 53.1301 48.4557 50.7963 46.4102 48.5395ZM20.2486 19.3942C21.2718 21.957 23.0179 23.7249 25.1654 24.3729C25.4585 24.4614 25.7579 24.528 26.0609 24.5722C30.7386 25.2652 35.1788 20.6419 36.1728 14.0365C36.5924 11.26 36.3164 8.47283 35.4042 6.19269C34.3825 3.63495 32.6332 1.8676 30.4871 1.21997C30.194 1.13151 29.8946 1.0649 29.5916 1.02069C24.9139 0.327682 20.4737 4.95101 19.4797 11.5564C19.0599 14.3283 19.3368 17.1127 20.2486 19.3942ZM41.8777 29.3453C42.1546 29.4761 42.4408 29.5862 42.734 29.6746C44.8828 30.3231 47.314 29.8158 49.584 28.2469C51.6043 26.8502 53.3697 24.6821 54.5597 22.1396C57.3847 16.0898 56.2432 9.78203 51.9638 7.769C51.6869 7.63821 51.4007 7.52813 51.1076 7.43965C48.9606 6.79478 46.5257 7.29944 44.2597 8.86506C42.2385 10.26 40.4667 12.4292 39.281 14.9775C36.456 21.0273 37.5975 27.335 41.8777 29.3453ZM9.92528 34.3876L9.94674 34.3866C11.7975 34.2219 13.4713 33.2928 14.7872 31.6987C16.7819 29.2812 17.7356 25.5306 17.3432 21.6531C16.7993 16.2865 13.8796 11.909 10.0786 10.762C9.27404 10.5179 8.43076 10.4273 7.59272 10.4949L7.57126 10.496C5.72634 10.6563 4.05085 11.591 2.73492 13.1851C0.740276 15.6026 -0.213419 19.3532 0.178972 23.2307C0.722882 28.5973 3.64258 32.9748 7.44355 34.1218C8.24687 34.3649 9.08869 34.4551 9.92528 34.3876Z" fill="#85686C"/>
</svg>
