<svg width="70" height="65" viewBox="0 0 70 65" fill="none" xmlns="http://www.w3.org/2000/svg">
<path d="M68.1143 16.578C67.0264 14.819 65.4968 13.6677 63.6904 13.2504L63.6662 13.2454C62.8453 13.0638 61.9976 13.038 61.1672 13.1694L61.0758 13.1837C57.1955 13.8525 53.7434 17.7811 52.4873 22.9596C51.5645 26.7473 51.9945 30.5977 53.6383 33.26C54.725 35.0206 56.2574 36.1714 58.071 36.5876L58.0907 36.5919C58.9116 36.7732 59.7593 36.799 60.5897 36.6679C64.5163 36.0518 68.0099 32.1168 69.293 26.8681C70.1979 23.0876 69.7597 19.2414 68.1143 16.578ZM55.864 39.9858C53.4094 38.9899 51.089 38.0475 49.3446 35.9746C44.5289 30.2345 41.6211 26.7699 35.5713 27.7192C29.5216 28.6685 27.8089 32.858 24.9742 39.7985C23.9461 42.3094 22.0218 43.9193 19.9839 45.626C17.6471 47.5815 15.2327 49.6018 14.5766 52.935C14.3075 54.1417 14.2723 55.3888 14.4727 56.6088C15.2782 61.7419 19.9314 65.291 24.8432 64.5203C27.3776 64.1226 29.9371 62.8213 32.6455 61.4439C35.2495 60.1195 37.9417 58.7505 40.3947 58.3656C42.8477 57.9807 45.8227 58.4604 48.6973 58.9252C51.6908 59.4021 54.5129 59.859 57.0544 59.4602C61.9591 58.6906 65.2946 53.888 64.4891 48.7549C64.3014 47.532 63.881 46.3564 63.2508 45.2917C61.6048 42.3167 58.686 41.1318 55.864 39.9858ZM19.6487 25.0752C21.6823 26.9403 24.0225 27.7757 26.2385 27.428C26.5411 27.3805 26.8396 27.3107 27.1318 27.2191C31.6471 25.8142 33.6421 19.7223 31.6721 13.3397C30.8458 10.656 29.3879 8.26454 27.5768 6.60586C25.5467 4.74454 23.2039 3.91103 20.9893 4.25852C20.6868 4.306 20.3882 4.37583 20.096 4.46745C15.5808 5.87233 13.5858 11.9642 15.5558 18.3468C16.38 21.0265 17.8374 23.4151 19.6487 25.0752ZM43.4535 24.658C43.7597 24.6558 44.0653 24.6308 44.3679 24.5833C46.5853 24.2354 48.5557 22.7236 49.9204 20.3252C51.1347 18.1904 51.7848 15.4711 51.754 12.664C51.6749 5.98762 47.9099 0.799538 43.1809 0.842258C42.8747 0.844538 42.5691 0.86951 42.2666 0.916969C40.0524 1.26732 38.0775 2.77833 36.715 5.17198C35.499 7.30564 34.8437 10.0287 34.8809 12.8391C34.96 19.5155 38.7249 24.7036 43.4535 24.658ZM16.8518 43.0627L16.8706 43.0524C18.4667 42.1012 19.5718 40.538 20.0659 38.5307C20.8143 35.4873 20.0465 31.6943 18.0108 28.3708C15.1927 23.7715 10.663 21.094 6.7407 21.7095C5.90991 21.8386 5.11082 22.1228 4.38506 22.5472L4.3662 22.5575C2.77348 23.5023 1.66932 25.0713 1.17524 27.0785C0.426795 30.122 1.1946 33.915 3.23028 37.2384C6.04843 41.8377 10.5781 44.5153 14.5004 43.8998C15.3297 43.7704 16.1273 43.4864 16.8518 43.0627Z" fill="#85686C"/>
</svg>
